<svg width="72" height="57" viewBox="0 0 72 57" fill="none" xmlns="http://www.w3.org/2000/svg">
<g clip-path="url(#clip0_764_2)">
<path d="M39.966 0L33.047 25.16L26.1 0L19.982 0.048L13.064 25.16L6.12 0H0L10.185 34.837H15.943L23.031 10.065L30.168 34.837H35.925L46.086 0H39.966Z" fill="#00AAC1"/>
<path d="M50.2764 34.837V0H56.1064V29.37H71.4934V34.838L50.2764 34.837Z" fill="#0D1931"/>
<path d="M68.1645 49.1081C68.1645 50.548 67.7375 51.9555 66.9376 53.1527C66.1376 54.3499 65.0007 55.283 63.6704 55.834C62.3402 56.385 60.8764 56.5291 59.4642 56.2482C58.0521 55.9673 56.7549 55.274 55.7367 54.2559C54.7186 53.2377 54.0253 51.9406 53.7444 50.5284C53.4635 49.1162 53.6076 47.6524 54.1587 46.3222C54.7097 44.9919 55.6428 43.855 56.8399 43.055C58.0371 42.2551 59.4447 41.8281 60.8845 41.8281C62.8153 41.8281 64.667 42.5951 66.0322 43.9604C67.3975 45.3257 68.1645 47.1773 68.1645 49.1081Z" fill="#00AAC1"/>
</g>
<defs>
<clipPath id="clip0_764_2">
<rect width="71.493" height="56.388" fill="white"/>
</clipPath>
</defs>
</svg>
